<svg version="1.1" id="Layer_1" xmlns="http://www.w3.org/2000/svg" xmlns:xlink="http://www.w3.org/1999/xlink" x="0px" y="0px"
	 width="100%" viewBox="0 0 180 180" enable-background="new 0 0 180 180" xml:space="preserve">
<path fill="#CF162D" opacity="1.000000" stroke="none" 
	d="
M100.000000,181.000000 
	C66.666672,181.000000 33.833336,181.000000 1.000004,181.000000 
	C1.000003,121.000008 1.000003,61.000011 1.000001,1.000012 
	C60.999989,1.000008 120.999977,1.000008 180.999969,1.000004 
	C180.999985,60.999989 180.999985,120.999977 181.000000,180.999985 
	C154.166672,181.000000 127.333336,181.000000 100.000000,181.000000 
M71.525101,43.496193 
	C71.979179,42.365219 72.433258,41.234245 73.368011,39.893696 
	C73.535194,39.944698 73.702385,39.995701 74.125435,40.886723 
	C75.114006,44.931648 76.102577,48.976574 77.646416,53.644138 
	C81.519905,53.644138 85.393394,53.644138 89.512024,53.644138 
	C89.512024,50.486012 89.380402,47.675533 89.537590,44.881302 
	C89.950485,37.541561 86.066544,32.230659 78.826859,31.001505 
	C69.501717,29.418287 59.704659,30.984743 56.078827,44.361782 
	C55.732052,45.072075 55.087742,45.780396 55.083019,46.492954 
	C55.009438,57.589016 54.970592,68.686119 55.085434,79.781311 
	C55.096504,80.850906 56.180374,81.909386 57.053158,83.713020 
	C57.724895,85.458664 58.007133,87.523849 59.133366,88.896622 
	C65.168030,96.252304 76.801224,97.932121 84.636253,92.483269 
	C86.444473,91.225746 88.342697,89.013306 88.701675,86.976334 
	C89.511398,82.381630 89.384651,77.621895 89.637505,72.955284 
	C85.076080,72.955284 81.470001,72.955284 78.172035,72.955284 
	C77.368477,76.825027 76.622536,80.417297 75.268738,84.076050 
	C73.535065,83.720634 71.801384,83.365219 69.777527,82.247009 
	C69.829056,81.171989 69.880585,80.096962 70.461922,78.375755 
	C70.642769,70.631393 70.919167,62.887375 70.947418,55.142452 
	C70.956131,52.755470 70.287720,50.366016 69.697174,47.250771 
	C69.787216,46.503674 69.877258,45.756577 70.370735,44.738667 
	C70.634964,44.540684 70.841743,44.294464 71.525101,43.496193 
M145.697495,30.429079 
	C141.686981,28.330935 137.746124,27.663605 133.451370,31.636442 
	C133.319031,49.419491 133.186691,67.202538 132.609634,85.453857 
	C132.976517,86.251526 133.343384,87.049187 134.035767,88.428955 
	C134.982056,93.828171 139.776123,95.970879 143.668472,95.912285 
	C147.848770,95.849358 151.983185,92.737671 155.906143,91.055611 
	C155.988007,91.824318 156.188675,93.708626 156.457382,96.231598 
	C160.175476,95.778038 163.523087,95.369682 167.603088,94.651306 
	C168.067078,93.508652 168.930313,92.367813 168.935501,91.223083 
	C169.020538,72.479279 169.039688,53.734684 168.907761,34.991436 
	C168.898453,33.669773 167.595154,32.357220 166.964478,31.052696 
	C166.964478,31.052696 166.937057,31.119215 166.710266,30.365519 
	C162.673843,28.418016 158.703644,27.569008 154.820312,31.435699 
	C154.691528,31.697823 154.483780,31.856691 153.633698,32.550762 
	C153.425156,33.507271 153.037689,34.463261 153.034912,35.420368 
	C152.993668,49.681488 152.980530,63.942852 153.040344,78.203819 
	C153.045639,79.462646 153.606308,80.719139 153.912262,82.739868 
	C152.136261,85.841965 149.912857,86.474960 147.585999,83.293015 
	C147.714737,66.843254 147.879807,50.393486 147.878403,33.943729 
	C147.878326,32.995152 146.523529,32.046684 145.899643,31.097477 
	C145.899643,31.097477 145.888657,31.197315 145.697495,30.429079 
M97.157532,38.621239 
	C96.956818,39.126297 96.756104,39.631355 95.842964,40.493862 
	C92.888344,45.289459 93.221115,51.447536 96.991112,55.397278 
	C100.474518,59.213242 103.360336,63.977539 107.574829,66.633331 
	C114.736427,71.146263 116.183235,76.978035 114.561317,84.929611 
	C112.991028,85.037422 110.041954,85.614861 109.890625,85.191742 
	C108.514702,81.344452 107.626755,77.322655 106.568764,73.246628 
	C103.301491,73.246628 99.580063,73.246628 95.569824,73.246628 
	C95.569824,75.572731 95.620888,77.555885 95.561592,79.535751 
	C95.157608,93.025124 100.058708,95.996498 113.308250,95.506721 
	C114.301720,95.469994 115.296631,95.294304 116.276955,95.109413 
	C121.946297,94.040184 125.423340,90.714806 126.672379,85.046585 
	C129.173523,73.696182 125.531860,63.562195 115.865067,57.221134 
	C111.198456,54.160011 107.889236,50.810055 108.547096,44.974979 
	C108.704178,43.581741 109.962959,42.312717 110.715027,40.986565 
	C112.131027,42.148232 114.444008,43.101418 114.772751,44.515800 
	C115.419189,47.297009 114.963043,50.334496 114.963043,54.452522 
	C119.650185,53.505859 123.241570,52.780510 127.391113,51.423420 
	C127.567726,47.238060 128.002029,43.038376 127.770599,38.875702 
	C127.697113,37.553951 125.850159,36.330803 124.376976,34.905563 
	C124.116600,34.698463 123.980621,34.428669 123.870514,33.417202 
	C122.230042,32.653847 120.589577,31.890490 118.129333,31.136099 
	C115.314034,30.997923 112.450821,30.469845 109.694145,30.808643 
	C105.006012,31.384815 100.031616,31.828926 97.277023,37.110699 
	C97.152161,37.188271 96.911987,37.288197 96.921959,37.339622 
	C96.970695,37.590927 97.086143,37.829292 97.157532,38.621239 
z"/>
<path fill="#FDF7F8" opacity="1.000000" stroke="none" 
	d="
M166.870682,94.961327 
	C163.523087,95.369682 160.175476,95.778038 156.457382,96.231598 
	C156.188675,93.708626 155.988007,91.824318 155.906143,91.055611 
	C151.983185,92.737671 147.848770,95.849358 143.668472,95.912285 
	C139.776123,95.970879 134.982056,93.828171 133.865280,87.767654 
	C133.481323,86.399422 133.267838,85.692505 133.054352,84.985588 
	C133.186691,67.202538 133.319031,49.419491 134.182022,31.373096 
	C138.571335,31.138939 142.229996,31.168125 145.888657,31.197315 
	C145.888657,31.197315 145.899643,31.097477 145.954697,31.550112 
	C146.037689,47.426952 146.030594,62.851406 146.138443,78.275055 
	C146.151749,80.175720 146.778488,82.072098 147.120941,83.970459 
	C149.912857,86.474960 152.136261,85.841965 154.057220,81.910904 
	C154.200485,64.692062 154.198776,48.302185 154.197067,31.912306 
	C154.483780,31.856691 154.691528,31.697823 155.367340,31.283077 
	C159.588593,31.126709 163.262833,31.122963 166.937057,31.119215 
	C166.937057,31.119215 166.964478,31.052696 167.084763,31.490952 
	C167.249405,47.662365 167.335739,63.395580 167.314590,79.128647 
	C167.307495,84.406395 167.026489,89.683777 166.870682,94.961327 
z"/>
<path fill="#FDF7F8" opacity="1.000000" stroke="none" 
	d="
M123.969048,34.096180 
	C123.980621,34.428669 124.116600,34.698463 124.660812,35.378052 
	C125.574089,41.252079 126.203522,46.653618 126.832954,52.055161 
	C123.241570,52.780510 119.650185,53.505859 114.963043,54.452522 
	C114.963043,50.334496 115.419189,47.297009 114.772751,44.515800 
	C114.444008,43.101418 112.131027,42.148232 110.715027,40.986565 
	C109.962959,42.312717 108.704178,43.581741 108.547096,44.974979 
	C107.889236,50.810055 111.198456,54.160011 115.865067,57.221134 
	C125.531860,63.562195 129.173523,73.696182 126.672379,85.046585 
	C125.423340,90.714806 121.946297,94.040184 116.276955,95.109413 
	C115.296631,95.294304 114.301720,95.469994 113.308250,95.506721 
	C100.058708,95.996498 95.157608,93.025124 95.561592,79.535751 
	C95.620888,77.555885 95.569824,75.572731 95.569824,73.246628 
	C99.580063,73.246628 103.301491,73.246628 106.568764,73.246628 
	C107.626755,77.322655 108.514702,81.344452 109.890625,85.191742 
	C110.041954,85.614861 112.991028,85.037422 114.561317,84.929611 
	C116.183235,76.978035 114.736427,71.146263 107.574829,66.633331 
	C103.360336,63.977539 100.474518,59.213242 96.728897,54.669903 
	C96.496254,49.340488 96.525826,44.738453 96.555389,40.136414 
	C96.756104,39.631355 96.956818,39.126297 97.353363,38.227783 
	C97.777802,37.577484 97.801086,37.303211 97.619049,37.011505 
	C100.031616,31.828926 105.006012,31.384815 109.694145,30.808643 
	C112.450821,30.469845 115.314034,30.997923 118.788177,31.338898 
	C120.954369,32.393188 122.461708,33.244686 123.969048,34.096180 
z"/>
<path fill="#FDF7F8" opacity="1.000000" stroke="none" 
	d="
M73.869568,40.046707 
	C73.702385,39.995701 73.535194,39.944698 72.746269,40.055946 
	C71.445671,41.480743 70.766815,42.743294 69.981918,44.247627 
	C69.906349,44.662773 69.936821,44.836128 69.967300,45.009483 
	C69.877258,45.756577 69.787216,46.503674 69.724976,48.077225 
	C69.812561,58.943104 69.872345,68.982521 69.932129,79.021942 
	C69.880585,80.096962 69.829056,81.171989 69.893936,83.005722 
	C71.831665,87.055466 73.772034,87.497345 75.876602,84.009567 
	C76.622536,80.417297 77.368477,76.825027 78.172035,72.955284 
	C81.470001,72.955284 85.076080,72.955284 89.637505,72.955284 
	C89.384651,77.621895 89.511398,82.381630 88.701675,86.976334 
	C88.342697,89.013306 86.444473,91.225746 84.636253,92.483269 
	C76.801224,97.932121 65.168030,96.252304 59.133366,88.896622 
	C58.007133,87.523849 57.724895,85.458664 56.939480,82.877045 
	C56.805676,69.369690 56.785549,56.698307 56.765427,44.026920 
	C59.704659,30.984743 69.501717,29.418287 78.826859,31.001505 
	C86.066544,32.230659 89.950485,37.541561 89.537590,44.881302 
	C89.380402,47.675533 89.512024,50.486012 89.512024,53.644138 
	C85.393394,53.644138 81.519905,53.644138 77.479179,52.885502 
	C77.337158,49.967587 77.829964,47.673649 77.257668,45.686451 
	C76.671242,43.650177 75.042244,41.914150 73.869568,40.046707 
z"/>
<path fill="#C90011" opacity="1.000000" stroke="none" 
	d="
M167.236877,94.806320 
	C167.026489,89.683777 167.307495,84.406395 167.314590,79.128647 
	C167.335739,63.395580 167.249405,47.662365 167.049316,31.484819 
	C167.595154,32.357220 168.898453,33.669773 168.907761,34.991436 
	C169.039688,53.734684 169.020538,72.479279 168.935501,91.223083 
	C168.930313,92.367813 168.067078,93.508652 167.236877,94.806320 
z"/>
<path fill="#CB021B" opacity="1.000000" stroke="none" 
	d="
M147.353470,83.631737 
	C146.778488,82.072098 146.151749,80.175720 146.138443,78.275055 
	C146.030594,62.851406 146.037689,47.426952 145.904480,31.550457 
	C146.523529,32.046684 147.878326,32.995152 147.878403,33.943729 
	C147.879807,50.393486 147.714737,66.843254 147.353470,83.631737 
z"/>
<path fill="#CA0015" opacity="1.000000" stroke="none" 
	d="
M56.422127,44.194351 
	C56.785549,56.698307 56.805676,69.369690 56.796021,82.507050 
	C56.180374,81.909386 55.096504,80.850906 55.085434,79.781311 
	C54.970592,68.686119 55.009438,57.589016 55.083019,46.492954 
	C55.087742,45.780396 55.732052,45.072075 56.422127,44.194351 
z"/>
<path fill="#C90011" opacity="1.000000" stroke="none" 
	d="
M153.915375,32.231533 
	C154.198776,48.302185 154.200485,64.692062 154.055603,81.529327 
	C153.606308,80.719139 153.045639,79.462646 153.040344,78.203819 
	C152.980530,63.942852 152.993668,49.681488 153.034912,35.420368 
	C153.037689,34.463261 153.425156,33.507271 153.915375,32.231533 
z"/>
<path fill="#C90115" opacity="1.000000" stroke="none" 
	d="
M70.197021,78.698853 
	C69.872345,68.982521 69.812561,58.943104 69.841064,48.440689 
	C70.287720,50.366016 70.956131,52.755470 70.947418,55.142452 
	C70.919167,62.887375 70.642769,70.631393 70.197021,78.698853 
z"/>
<path fill="#CD0D24" opacity="1.000000" stroke="none" 
	d="
M96.199173,40.315140 
	C96.525826,44.738453 96.496254,49.340488 96.542679,54.395546 
	C93.221115,51.447536 92.888344,45.289459 96.199173,40.315140 
z"/>
<path fill="#CD0B24" opacity="1.000000" stroke="none" 
	d="
M145.793076,30.813196 
	C142.229996,31.168125 138.571335,31.138939 134.456390,31.054123 
	C137.746124,27.663605 141.686981,28.330935 145.793076,30.813196 
z"/>
<path fill="#CE0F27" opacity="1.000000" stroke="none" 
	d="
M166.823669,30.742367 
	C163.262833,31.122963 159.588593,31.126709 155.455078,31.101105 
	C158.703644,27.569008 162.673843,28.418016 166.823669,30.742367 
z"/>
<path fill="#CC0C1F" opacity="1.000000" stroke="none" 
	d="
M127.112030,51.739288 
	C126.203522,46.653618 125.574089,41.252079 124.879715,35.456535 
	C125.850159,36.330803 127.697113,37.553951 127.770599,38.875702 
	C128.002029,43.038376 127.567726,47.238060 127.112030,51.739288 
z"/>
<path fill="#CC0D20" opacity="1.000000" stroke="none" 
	d="
M73.997498,40.466713 
	C75.042244,41.914150 76.671242,43.650177 77.257668,45.686451 
	C77.829964,47.673649 77.337158,49.967587 77.201553,52.574181 
	C76.102577,48.976574 75.114006,44.931648 73.997498,40.466713 
z"/>
<path fill="#C90115" opacity="1.000000" stroke="none" 
	d="
M75.572670,84.042809 
	C73.772034,87.497345 71.831665,87.055466 70.039032,83.387123 
	C71.801384,83.365219 73.535065,83.720634 75.572670,84.042809 
z"/>
<path fill="#CC0C1F" opacity="1.000000" stroke="none" 
	d="
M123.919785,33.756691 
	C122.461708,33.244686 120.954369,32.393188 119.198067,31.334415 
	C120.589577,31.890490 122.230042,32.653847 123.919785,33.756691 
z"/>
<path fill="#CC0D20" opacity="1.000000" stroke="none" 
	d="
M70.087967,44.005844 
	C70.766815,42.743294 71.445671,41.480743 72.505936,40.160736 
	C72.433258,41.234245 71.979179,42.365219 71.032364,43.749935 
	C70.539635,44.003677 70.087959,44.005840 70.087967,44.005844 
z"/>
<path fill="#CB031C" opacity="1.000000" stroke="none" 
	d="
M132.832001,85.219727 
	C133.267838,85.692505 133.481323,86.399422 133.702530,87.476601 
	C133.343384,87.049187 132.976517,86.251526 132.832001,85.219727 
z"/>
<path fill="#CD0D24" opacity="1.000000" stroke="none" 
	d="
M97.448036,37.061104 
	C97.801086,37.303211 97.777802,37.577484 97.363602,37.953281 
	C97.086143,37.829292 96.970695,37.590927 96.921959,37.339622 
	C96.911987,37.288197 97.152161,37.188271 97.448036,37.061104 
z"/>
<path fill="#C90115" opacity="1.000000" stroke="none" 
	d="
M69.981918,44.247627 
	C70.087959,44.005840 70.539635,44.003677 70.765358,44.001839 
	C70.841743,44.294464 70.634964,44.540684 70.169022,44.874077 
	C69.936821,44.836128 69.906349,44.662773 69.981918,44.247627 
z"/>
</svg>